<!DOCTYPE svg PUBLIC "-//W3C//DTD SVG 1.1//EN" "http://www.w3.org/Graphics/SVG/1.1/DTD/svg11.dtd">
                <svg xmlns="http://www.w3.org/2000/svg" xmlns:xlink="http://www.w3.org/1999/xlink" 
                width="1156" height="1198">
                
                <g>
                   <rect x="50" y="65"
            width="443.4" height="30"
            rx="3" ry="3"
            style="fill:#90caf9; stroke:#444; stroke-width:1" />
                   <title>var character = document.getElementById(&apos;character&apos;)</title>
            <text x="65" y="85"
                font-family="monospace" font-size="13" fill="#222">
                <tspan x="65" y="85">var character = document.getElementById(&apos;character...</tspan>
            </text>
                   
                   
                </g>
                <g>
                   <rect x="50" y="113.5"
            width="373.2" height="30"
            rx="3" ry="3"
            style="fill:#90caf9; stroke:#444; stroke-width:1" />
                   <title>var block = document.getElementById(&apos;block&apos;)</title>
            <text x="65" y="133.5"
                font-family="monospace" font-size="13" fill="#222">
                <tspan x="65" y="133.5">var block = document.getElementById(&apos;block&apos;)</tspan>
            </text>
                   
                   
                </g>
                <g>
                   <rect x="50" y="162"
            width="147" height="30"
            rx="3" ry="3"
            style="fill:#90caf9; stroke:#444; stroke-width:1" />
                   <title>var counter = 0</title>
            <text x="65" y="182"
                font-family="monospace" font-size="13" fill="#222">
                <tspan x="65" y="182">var counter = 0</tspan>
            </text>
                   
                   
                </g>
                <g>
                   <rect x="50" y="210.5"
            width="170.4" height="30"
            rx="3" ry="3"
            style="fill:#90caf9; stroke:#444; stroke-width:1" />
                   <title>var counterTop = 0</title>
            <text x="65" y="230.5"
                font-family="monospace" font-size="13" fill="#222">
                <tspan x="65" y="230.5">var counterTop = 0</tspan>
            </text>
                   
                   
                </g>
            <g>
                <rect x="50" y="274"
            width="167" height="30"
            style="fill:#a5d6a7; stroke:#444; stroke-width:1" />
                    
                <line x1="60" y1="274" x2="60" y2="304"
                style="fill:#a5d6a7; stroke:#444; stroke-width:1" />
                <line x1="207" y1="274" x2="207" y2="304"
                style="fill:#a5d6a7; stroke:#444; stroke-width:1" />
             
                <title>function jump()</title>
            <text x="75" y="294"
                font-family="monospace" font-size="13" fill="#222">
                <tspan x="75" y="294">function jump()</tspan>
            </text>
                
            </g><g>
            <rect x="117" y="337.5"
            width="325.2" height="30"
            rx="3" ry="3"
            style="fill:#ce93d8; stroke:#444; stroke-width:1" />                
            <polygon points="87,352.5 117,322.5 147,352.5 117,382.5"
            style="fill:#ce93d8; stroke:#444; stroke-width:1" />
            <title>(character.classList == &quot;animate&quot;)</title>
            <text x="162" y="357.5"
                font-family="monospace" font-size="13" fill="#222">
                <tspan x="162" y="357.5">(character.classList == &quot;animate&quot;)</tspan>
            </text>
            
            <text x="109.2" y="357.5"
        font-family="monospace" font-size="13" fill="#222">if</text> <text x="124.8" y="384.45"
        font-family="monospace" font-size="13" fill="#222">+</text> 
        </g>
            <g>
                <rect x="137" y="392.5"
            width="76.8" height="30"
            rx="3" ry="3"
            style="fill:#90caf9; stroke:#444; stroke-width:1" />
                
                <line x1="213.8" y1="402.5" x2="218.8" y2="402.5"
                style="fill:#a5d6a7; stroke:#444; stroke-width:1" />
                
                <line x1="213.8" y1="412.5" x2="218.8" y2="412.5"
                style="fill:#a5d6a7; stroke:#444; stroke-width:1" />

                <path d="M218.8, 396.5 L234.8, 407.5 L218.8, 418.5 Z" 
        fill="#a5d6a7" stroke="#444" stroke-width="1" />
                             
                <title>return</title>
            <text x="152" y="412.5"
                font-family="monospace" font-size="13" fill="#222">
                <tspan x="152" y="412.5">return</tspan>
            </text>
                
            </g>
                <g>
                   <rect x="87" y="442.5"
            width="295.2" height="30"
            rx="2" ry="2"
            style="fill:#C5E1A5; stroke:#444; stroke-width:1" />
                   <title>character.classList.add(&apos;animate&apos;)</title>
            <text x="102" y="462.5"
                font-family="monospace" font-size="13" fill="#222">
                <tspan x="102" y="462.5">character.classList.add(&apos;animate&apos;)</tspan>
            </text>
                   
                   
                </g>
                <g>
                   <rect x="87" y="491"
            width="186" height="30"
            rx="2" ry="2"
            style="fill:#C5E1A5; stroke:#444; stroke-width:1" />
                   <title>setTimeout(*(), 300)</title>
            <text x="102" y="511"
                font-family="monospace" font-size="13" fill="#222">
                <tspan x="102" y="511">setTimeout(*(), 300)</tspan>
            </text>
                   
                   
                </g>
            <g>
                <rect x="124" y="539.5"
            width="128" height="30"
            style="fill:#a5d6a7; stroke:#444; stroke-width:1" />
                    
                <line x1="134" y1="539.5" x2="134" y2="569.5"
                style="fill:#a5d6a7; stroke:#444; stroke-width:1" />
                <line x1="242" y1="539.5" x2="242" y2="569.5"
                style="fill:#a5d6a7; stroke:#444; stroke-width:1" />
             
                <title>function()</title>
            <text x="149" y="559.5"
                font-family="monospace" font-size="13" fill="#222">
                <tspan x="149" y="559.5">function()</tspan>
            </text>
                
            </g>
                <g>
                   <rect x="161" y="588"
            width="318.59999999999997" height="30"
            rx="2" ry="2"
            style="fill:#C5E1A5; stroke:#444; stroke-width:1" />
                   <title>character.classList.remove(&apos;animate&apos;)</title>
            <text x="176" y="608"
                font-family="monospace" font-size="13" fill="#222">
                <tspan x="176" y="608">character.classList.remove(&apos;animate&apos;)</tspan>
            </text>
                   
                   
                </g>
                <g>
                   <rect x="50" y="636.5"
            width="310.8" height="30"
            rx="3" ry="3"
            style="fill:#90caf9; stroke:#444; stroke-width:1" />
                   <title>var checkDead = setInterval(*(), 10)</title>
            <text x="65" y="656.5"
                font-family="monospace" font-size="13" fill="#222">
                <tspan x="65" y="656.5">var checkDead = setInterval(*(), 10)</tspan>
            </text>
                   
                   
                </g>
            <g>
                <rect x="87" y="685"
            width="128" height="30"
            style="fill:#a5d6a7; stroke:#444; stroke-width:1" />
                    
                <line x1="97" y1="685" x2="97" y2="715"
                style="fill:#a5d6a7; stroke:#444; stroke-width:1" />
                <line x1="205" y1="685" x2="205" y2="715"
                style="fill:#a5d6a7; stroke:#444; stroke-width:1" />
             
                <title>function()</title>
            <text x="112" y="705"
                font-family="monospace" font-size="13" fill="#222">
                <tspan x="112" y="705">function()</tspan>
            </text>
                
            </g>
                <g>
                   <rect x="124" y="733.5"
            width="443.4" height="30"
            rx="3" ry="3"
            style="fill:#90caf9; stroke:#444; stroke-width:1" />
                   <title>let characterTop = parseInt(window.getComputedStyle(character).getPropertyValue(&quot;top&quot;))</title>
            <text x="139" y="753.5"
                font-family="monospace" font-size="13" fill="#222">
                <tspan x="139" y="753.5">let characterTop = parseInt(window.getComputedStyl...</tspan>
            </text>
                   
                   
                </g>
                <g>
                   <rect x="124" y="782"
            width="443.4" height="30"
            rx="3" ry="3"
            style="fill:#90caf9; stroke:#444; stroke-width:1" />
                   <title>let blockLeft = parseInt(window.getComputedStyle(block).getPropertyValue(&quot;left&quot;))</title>
            <text x="139" y="802"
                font-family="monospace" font-size="13" fill="#222">
                <tspan x="139" y="802">let blockLeft = parseInt(window.getComputedStyle(b...</tspan>
            </text>
                   
                   
                </g><g>
            <rect x="154" y="845.5"
            width="473.4" height="30"
            rx="3" ry="3"
            style="fill:#ce93d8; stroke:#444; stroke-width:1" />                
            <polygon points="124,860.5 154,830.5 184,860.5 154,890.5"
            style="fill:#ce93d8; stroke:#444; stroke-width:1" />
            <title>(blockLeft &lt; 20 &amp;&amp; blockLeft &gt; -20 &amp;&amp; characterTop &gt;= 130)</title>
            <text x="199" y="865.5"
                font-family="monospace" font-size="13" fill="#222">
                <tspan x="199" y="865.5">(blockLeft &lt; 20 &amp;&amp; blockLeft &gt; -20 &amp;&amp; characterTop...</tspan>
            </text>
            
            <text x="146.2" y="865.5"
        font-family="monospace" font-size="13" fill="#222">if</text> <text x="161.8" y="892.45"
        font-family="monospace" font-size="13" fill="#222">+</text> <text x="631.3" y="858.55"
        font-family="monospace" font-size="13" fill="#222">-</text>
        </g>
                <g>
                   <rect x="174" y="900.5"
            width="264" height="30"
            rx="3" ry="3"
            style="fill:#90caf9; stroke:#444; stroke-width:1" />
                   <title>block.style.animation = &quot;none&quot;</title>
            <text x="189" y="920.5"
                font-family="monospace" font-size="13" fill="#222">
                <tspan x="189" y="920.5">block.style.animation = &quot;none&quot;</tspan>
            </text>
                   
                   
                </g>
                <g>
                   <rect x="174" y="949"
            width="443.4" height="30"
            rx="2" ry="2"
            style="fill:#C5E1A5; stroke:#444; stroke-width:1" />
                   <title>alert(&quot;Game Over. score: &quot; + Math.floor(counter / 100))</title>
            <text x="189" y="969"
                font-family="monospace" font-size="13" fill="#222">
                <tspan x="189" y="969">alert(&quot;Game Over. score: &quot; + Math.floor(counter / ...</tspan>
            </text>
                   
                   
                </g>
                <g>
                   <rect x="174" y="997.5"
            width="115.8" height="30"
            rx="3" ry="3"
            style="fill:#90caf9; stroke:#444; stroke-width:1" />
                   <title>counter = 0</title>
            <text x="189" y="1017.5"
                font-family="monospace" font-size="13" fill="#222">
                <tspan x="189" y="1017.5">counter = 0</tspan>
            </text>
                   
                   
                </g>
                <g>
                   <rect x="174" y="1046"
            width="420" height="30"
            rx="3" ry="3"
            style="fill:#90caf9; stroke:#444; stroke-width:1" />
                   <title>block.style.animation = &quot;block 1s infinite linear&quot;</title>
            <text x="189" y="1066"
                font-family="monospace" font-size="13" fill="#222">
                <tspan x="189" y="1066">block.style.animation = &quot;block 1s infinite linear&quot;</tspan>
            </text>
                   
                   
                </g>
                <g>
                   <rect x="687.4" y="900.5"
            width="100.2" height="30"
            rx="3" ry="3"
            style="fill:#90caf9; stroke:#444; stroke-width:1" />
                   <title>counter++</title>
            <text x="702.4" y="920.5"
                font-family="monospace" font-size="13" fill="#222">
                <tspan x="702.4" y="920.5">counter++</tspan>
            </text>
                   
                   
                </g>
                <g>
                   <rect x="687.4" y="949"
            width="123.6" height="30"
            rx="3" ry="3"
            style="fill:#90caf9; stroke:#444; stroke-width:1" />
                   <title>counterTop++</title>
            <text x="702.4" y="969"
                font-family="monospace" font-size="13" fill="#222">
                <tspan x="702.4" y="969">counterTop++</tspan>
            </text>
                   
                   
                </g>
                <g>
                   <rect x="687.4" y="997.5"
            width="443.4" height="30"
            rx="3" ry="3"
            style="fill:#90caf9; stroke:#444; stroke-width:1" />
                   <title>document.getElementById(&quot;scoreSpan&quot;).innerHTML = Math.floor(counter / 100)</title>
            <text x="702.4" y="1017.5"
                font-family="monospace" font-size="13" fill="#222">
                <tspan x="702.4" y="1017.5">document.getElementById(&quot;scoreSpan&quot;).innerHTML = M...</tspan>
            </text>
                   
                   
                </g>
                <g>
                   <rect x="724.4" y="1046"
            width="310.8" height="30"
            rx="2" ry="2"
            style="fill:#C5E1A5; stroke:#444; stroke-width:1" />
                   <title>document.getElementById(&apos;scoreSpan&apos;)</title>
            <text x="739.4" y="1066"
                font-family="monospace" font-size="13" fill="#222">
                <tspan x="739.4" y="1066">document.getElementById(&apos;scoreSpan&apos;)</tspan>
            </text>
                   
                   
                </g>
                <g>
                   <rect x="687.4" y="1094.5"
            width="443.4" height="30"
            rx="3" ry="3"
            style="fill:#90caf9; stroke:#444; stroke-width:1" />
                   <title>document.getElementById(counterTop).innerHTML = Math.floor(counter / 100)</title>
            <text x="702.4" y="1114.5"
                font-family="monospace" font-size="13" fill="#222">
                <tspan x="702.4" y="1114.5">document.getElementById(counterTop).innerHTML = Ma...</tspan>
            </text>
                   
                   
                </g>
                <g>
                   <rect x="724.4" y="1143"
            width="303" height="30"
            rx="2" ry="2"
            style="fill:#C5E1A5; stroke:#444; stroke-width:1" />
                   <title>document.getElementById(counterTop)</title>
            <text x="739.4" y="1163"
                font-family="monospace" font-size="13" fill="#222">
                <tspan x="739.4" y="1163">document.getElementById(counterTop)</tspan>
            </text>
                   
                   
                </g>
            <g>
               <rect x="25" y="13.75"
            width="216.6" height="24"
            style="fill:#fff59d; stroke:#444; stroke-width:1" />
               <circle cx="25" cy="25" r="15"
        style="fill:#fff59d; stroke:#444; stroke-width:1" />
               <title>Program: source module</title>
            <text x="55" y="30"
                font-family="monospace" font-size="13" fill="#222">
                <tspan x="55" y="30">Program: source module</tspan>
            </text>
            </g>
            <g>
               <path d="M25, 40 L25 76 Q25 80
                29 80
                L42 80 "
        style="fill:none; stroke:#444; stroke-width:1" />
               <path d="M42, 77 L50, 80 L42, 83 Z" 
        fill="#333" />
            </g>
            <g>
               <path d="M25, 40 L25 124.5 Q25 128.5
                29 128.5
                L42 128.5 "
        style="fill:none; stroke:#444; stroke-width:1" />
               <path d="M42, 125.5 L50, 128.5 L42, 131.5 Z" 
        fill="#333" />
            </g>
            <g>
               <path d="M25, 40 L25 173 Q25 177
                29 177
                L42 177 "
        style="fill:none; stroke:#444; stroke-width:1" />
               <path d="M42, 174 L50, 177 L42, 180 Z" 
        fill="#333" />
            </g>
            <g>
               <path d="M25, 40 L25 221.5 Q25 225.5
                29 225.5
                L42 225.5 "
        style="fill:none; stroke:#444; stroke-width:1" />
               <path d="M42, 222.5 L50, 225.5 L42, 228.5 Z" 
        fill="#333" />
            </g>
            <g>
               <path d="M25, 40 L25 285 Q25 289
                29 289
                L42 289 "
        style="fill:none; stroke:#444; stroke-width:1" />
               <path d="M42, 286 L50, 289 L42, 292 Z" 
        fill="#333" />
            </g>
            <g>
               <path d="M68.5, 304 L68.5 348.5 Q68.5 352.5
                72.5 352.5
                L79 352.5 "
        style="fill:none; stroke:#444; stroke-width:1" />
               <path d="M79, 349.5 L87, 352.5 L79, 355.5 Z" 
        fill="#333" />
            </g>
            <g>
               <path d="M117, 382.5 L117 403.5 Q117 407.5
                121 407.5
                L129 407.5 "
        style="fill:none; stroke:#444; stroke-width:1" />
               <path d="M129, 404.5 L137, 407.5 L129, 410.5 Z" 
        fill="#333" />
            </g>
            <g>
               <path d="M68.5, 304 L68.5 453.5 Q68.5 457.5
                72.5 457.5
                L79 457.5 "
        style="fill:none; stroke:#444; stroke-width:1" />
               <path d="M79, 454.5 L87, 457.5 L79, 460.5 Z" 
        fill="#333" />
            </g>
            <g>
               <path d="M68.5, 304 L68.5 502 Q68.5 506
                72.5 506
                L79 506 "
        style="fill:none; stroke:#444; stroke-width:1" />
               <path d="M79, 503 L87, 506 L79, 509 Z" 
        fill="#333" />
            </g>
            <g>
               <path d="M105.5, 521 L105.5 550.5 Q105.5 554.5
                109.5 554.5
                L124 554.5 "
        style="fill:none; stroke:#444; stroke-width:1" />
               false
            </g>
            <g>
               <path d="M142.5, 569.5 L142.5 599 Q142.5 603
                146.5 603
                L153 603 "
        style="fill:none; stroke:#444; stroke-width:1" />
               <path d="M153, 600 L161, 603 L153, 606 Z" 
        fill="#333" />
            </g>
            <g>
               <path d="M25, 40 L25 647.5 Q25 651.5
                29 651.5
                L42 651.5 "
        style="fill:none; stroke:#444; stroke-width:1" />
               <path d="M42, 648.5 L50, 651.5 L42, 654.5 Z" 
        fill="#333" />
            </g>
            <g>
               <path d="M68.5, 666.5 L68.5 696 Q68.5 700
                72.5 700
                L87 700 "
        style="fill:none; stroke:#444; stroke-width:1" />
               false
            </g>
            <g>
               <path d="M105.5, 715 L105.5 744.5 Q105.5 748.5
                109.5 748.5
                L116 748.5 "
        style="fill:none; stroke:#444; stroke-width:1" />
               <path d="M116, 745.5 L124, 748.5 L116, 751.5 Z" 
        fill="#333" />
            </g>
            <g>
               <path d="M105.5, 715 L105.5 793 Q105.5 797
                109.5 797
                L116 797 "
        style="fill:none; stroke:#444; stroke-width:1" />
               <path d="M116, 794 L124, 797 L116, 800 Z" 
        fill="#333" />
            </g>
            <g>
               <path d="M105.5, 715 L105.5 856.5 Q105.5 860.5
                109.5 860.5
                L116 860.5 "
        style="fill:none; stroke:#444; stroke-width:1" />
               <path d="M116, 857.5 L124, 860.5 L116, 863.5 Z" 
        fill="#333" />
            </g>
            <g>
               <path d="M154, 890.5 L154 911.5 Q154 915.5
                158 915.5
                L166 915.5 "
        style="fill:none; stroke:#444; stroke-width:1" />
               <path d="M166, 912.5 L174, 915.5 L166, 918.5 Z" 
        fill="#333" />
            </g>
            <g>
               <path d="M154, 890.5 L154 960 Q154 964
                158 964
                L166 964 "
        style="fill:none; stroke:#444; stroke-width:1" />
               <path d="M166, 961 L174, 964 L166, 967 Z" 
        fill="#333" />
            </g>
            <g>
               <path d="M154, 890.5 L154 1008.5 Q154 1012.5
                158 1012.5
                L166 1012.5 "
        style="fill:none; stroke:#444; stroke-width:1" />
               <path d="M166, 1009.5 L174, 1012.5 L166, 1015.5 Z" 
        fill="#333" />
            </g>
            <g>
               <path d="M154, 890.5 L154 1057 Q154 1061
                158 1061
                L166 1061 "
        style="fill:none; stroke:#444; stroke-width:1" />
               <path d="M166, 1058 L174, 1061 L166, 1064 Z" 
        fill="#333" />
            </g>
            <g>
               <path d="M627.4, 860.5 L663.4 860.5  Q667.4 860.5
                667.4 864.5
                L667.4 907.5 Q667.4 915.5
                671.4 915.5
                L679.4 915.5 "
        style="fill:none; stroke:#444; stroke-width:1" />
               <path d="M679.4, 912.5 L687.4, 915.5 L679.4, 918.5 Z" 
        fill="#333" />
            </g>
            <g>
               <path d="M627.4, 860.5 L663.4 860.5  Q667.4 860.5
                667.4 864.5
                L667.4 956 Q667.4 964
                671.4 964
                L679.4 964 "
        style="fill:none; stroke:#444; stroke-width:1" />
               <path d="M679.4, 961 L687.4, 964 L679.4, 967 Z" 
        fill="#333" />
            </g>
            <g>
               <path d="M627.4, 860.5 L663.4 860.5  Q667.4 860.5
                667.4 864.5
                L667.4 1004.5 Q667.4 1012.5
                671.4 1012.5
                L679.4 1012.5 "
        style="fill:none; stroke:#444; stroke-width:1" />
               <path d="M679.4, 1009.5 L687.4, 1012.5 L679.4, 1015.5 Z" 
        fill="#333" />
            </g>
            <g>
               <path d="M705.9, 1027.5 L705.9 1057 Q705.9 1061
                709.9 1061
                L716.4 1061 "
        style="fill:none; stroke:#444; stroke-width:1" />
               <path d="M716.4, 1058 L724.4, 1061 L716.4, 1064 Z" 
        fill="#333" />
            </g>
            <g>
               <path d="M627.4, 860.5 L663.4 860.5  Q667.4 860.5
                667.4 864.5
                L667.4 1101.5 Q667.4 1109.5
                671.4 1109.5
                L679.4 1109.5 "
        style="fill:none; stroke:#444; stroke-width:1" />
               <path d="M679.4, 1106.5 L687.4, 1109.5 L679.4, 1112.5 Z" 
        fill="#333" />
            </g>
            <g>
               <path d="M705.9, 1124.5 L705.9 1154 Q705.9 1158
                709.9 1158
                L716.4 1158 "
        style="fill:none; stroke:#444; stroke-width:1" />
               <path d="M716.4, 1155 L724.4, 1158 L716.4, 1161 Z" 
        fill="#333" />
            </g>
            </svg>